<mxfile host="Electron" agent="Mozilla/5.0 (Windows NT 10.0; Win64; x64) AppleWebKit/537.36 (KHTML, like Gecko) draw.io/26.0.7 Chrome/128.0.6613.186 Electron/32.2.5 Safari/537.36" version="26.0.7">
  <diagram name="Page-1" id="e56a1550-8fbb-45ad-956c-1786394a9013">
    <mxGraphModel dx="2295" dy="697" grid="1" gridSize="10" guides="1" tooltips="1" connect="1" arrows="1" fold="1" page="1" pageScale="1" pageWidth="1100" pageHeight="850" background="none" math="0" shadow="0">
      <root>
        <mxCell id="0" />
        <mxCell id="1" parent="0" />
        <mxCell id="2e49270ec7c68f3f-80" value="Conversation" style="swimlane;html=1;fontStyle=0;childLayout=stackLayout;horizontal=1;startSize=26;fillColor=#e0e0e0;horizontalStack=0;resizeParent=1;resizeLast=0;collapsible=1;marginBottom=0;swimlaneFillColor=#ffffff;align=center;rounded=0;shadow=0;comic=0;labelBackgroundColor=none;strokeWidth=1;fontFamily=Verdana;fontSize=14" parent="1" vertex="1">
          <mxGeometry x="30" y="35" width="180" height="220" as="geometry" />
        </mxCell>
        <mxCell id="2e49270ec7c68f3f-81" value="id:&lt;span style=&quot;font-weight: normal;&quot;&gt; string&lt;/span&gt;" style="shape=partialRectangle;top=0;left=0;right=0;bottom=1;html=1;align=left;verticalAlign=middle;fillColor=none;spacingLeft=34;spacingRight=4;whiteSpace=wrap;overflow=hidden;rotatable=0;points=[[0,0.5],[1,0.5]];portConstraint=eastwest;dropTarget=0;fontStyle=5;" parent="2e49270ec7c68f3f-80" vertex="1">
          <mxGeometry y="26" width="180" height="30" as="geometry" />
        </mxCell>
        <mxCell id="2e49270ec7c68f3f-82" value="PK" style="shape=partialRectangle;top=0;left=0;bottom=0;html=1;fillColor=none;align=left;verticalAlign=middle;spacingLeft=4;spacingRight=4;whiteSpace=wrap;overflow=hidden;rotatable=0;points=[];portConstraint=eastwest;part=1;" parent="2e49270ec7c68f3f-81" vertex="1" connectable="0">
          <mxGeometry width="30" height="30" as="geometry" />
        </mxCell>
        <mxCell id="2e49270ec7c68f3f-83" value="user_id: string" style="shape=partialRectangle;top=0;left=0;right=0;bottom=0;html=1;align=left;verticalAlign=top;fillColor=none;spacingLeft=34;spacingRight=4;whiteSpace=wrap;overflow=hidden;rotatable=0;points=[[0,0.5],[1,0.5]];portConstraint=eastwest;dropTarget=0;" parent="2e49270ec7c68f3f-80" vertex="1">
          <mxGeometry y="56" width="180" height="26" as="geometry" />
        </mxCell>
        <mxCell id="2e49270ec7c68f3f-84" value="FK" style="shape=partialRectangle;top=0;left=0;bottom=0;html=1;fillColor=none;align=left;verticalAlign=top;spacingLeft=4;spacingRight=4;whiteSpace=wrap;overflow=hidden;rotatable=0;points=[];portConstraint=eastwest;part=1;" parent="2e49270ec7c68f3f-83" vertex="1" connectable="0">
          <mxGeometry width="30" height="26" as="geometry" />
        </mxCell>
        <mxCell id="2e49270ec7c68f3f-85" value="modelUri: string" style="shape=partialRectangle;top=0;left=0;right=0;bottom=0;html=1;align=left;verticalAlign=top;fillColor=none;spacingLeft=34;spacingRight=4;whiteSpace=wrap;overflow=hidden;rotatable=0;points=[[0,0.5],[1,0.5]];portConstraint=eastwest;dropTarget=0;" parent="2e49270ec7c68f3f-80" vertex="1">
          <mxGeometry y="82" width="180" height="26" as="geometry" />
        </mxCell>
        <mxCell id="2e49270ec7c68f3f-86" value="" style="shape=partialRectangle;top=0;left=0;bottom=0;html=1;fillColor=none;align=left;verticalAlign=top;spacingLeft=4;spacingRight=4;whiteSpace=wrap;overflow=hidden;rotatable=0;points=[];portConstraint=eastwest;part=1;" parent="2e49270ec7c68f3f-85" vertex="1" connectable="0">
          <mxGeometry width="30" height="26" as="geometry" />
        </mxCell>
        <mxCell id="2e49270ec7c68f3f-87" value="completionOptions: array" style="shape=partialRectangle;top=0;left=0;right=0;bottom=0;html=1;align=left;verticalAlign=top;fillColor=none;spacingLeft=34;spacingRight=4;whiteSpace=wrap;overflow=hidden;rotatable=0;points=[[0,0.5],[1,0.5]];portConstraint=eastwest;dropTarget=0;" parent="2e49270ec7c68f3f-80" vertex="1">
          <mxGeometry y="108" width="180" height="26" as="geometry" />
        </mxCell>
        <mxCell id="2e49270ec7c68f3f-88" value="" style="shape=partialRectangle;top=0;left=0;bottom=0;html=1;fillColor=none;align=left;verticalAlign=top;spacingLeft=4;spacingRight=4;whiteSpace=wrap;overflow=hidden;rotatable=0;points=[];portConstraint=eastwest;part=1;" parent="2e49270ec7c68f3f-87" vertex="1" connectable="0">
          <mxGeometry width="30" height="26" as="geometry" />
        </mxCell>
        <mxCell id="e215ys3Rsmdvh917_Yf4-1" value="created_at: timestamp" style="shape=partialRectangle;top=0;left=0;right=0;bottom=0;html=1;align=left;verticalAlign=top;fillColor=none;spacingLeft=34;spacingRight=4;whiteSpace=wrap;overflow=hidden;rotatable=0;points=[[0,0.5],[1,0.5]];portConstraint=eastwest;dropTarget=0;" vertex="1" parent="2e49270ec7c68f3f-80">
          <mxGeometry y="134" width="180" height="26" as="geometry" />
        </mxCell>
        <mxCell id="e215ys3Rsmdvh917_Yf4-2" value="" style="shape=partialRectangle;top=0;left=0;bottom=0;html=1;fillColor=none;align=left;verticalAlign=top;spacingLeft=4;spacingRight=4;whiteSpace=wrap;overflow=hidden;rotatable=0;points=[];portConstraint=eastwest;part=1;" vertex="1" connectable="0" parent="e215ys3Rsmdvh917_Yf4-1">
          <mxGeometry width="30" height="26" as="geometry" />
        </mxCell>
        <mxCell id="e215ys3Rsmdvh917_Yf4-3" value="updated_at: timestamp" style="shape=partialRectangle;top=0;left=0;right=0;bottom=0;html=1;align=left;verticalAlign=top;fillColor=none;spacingLeft=34;spacingRight=4;whiteSpace=wrap;overflow=hidden;rotatable=0;points=[[0,0.5],[1,0.5]];portConstraint=eastwest;dropTarget=0;" vertex="1" parent="2e49270ec7c68f3f-80">
          <mxGeometry y="160" width="180" height="30" as="geometry" />
        </mxCell>
        <mxCell id="e215ys3Rsmdvh917_Yf4-4" value="" style="shape=partialRectangle;top=0;left=0;bottom=0;html=1;fillColor=none;align=left;verticalAlign=top;spacingLeft=4;spacingRight=4;whiteSpace=wrap;overflow=hidden;rotatable=0;points=[];portConstraint=eastwest;part=1;" vertex="1" connectable="0" parent="e215ys3Rsmdvh917_Yf4-3">
          <mxGeometry width="30" height="29.99999999999999" as="geometry" />
        </mxCell>
        <mxCell id="e215ys3Rsmdvh917_Yf4-36" value="messages: array" style="shape=partialRectangle;top=0;left=0;right=0;bottom=0;html=1;align=left;verticalAlign=top;fillColor=none;spacingLeft=34;spacingRight=4;whiteSpace=wrap;overflow=hidden;rotatable=0;points=[[0,0.5],[1,0.5]];portConstraint=eastwest;dropTarget=0;" vertex="1" parent="2e49270ec7c68f3f-80">
          <mxGeometry y="190" width="180" height="30" as="geometry" />
        </mxCell>
        <mxCell id="e215ys3Rsmdvh917_Yf4-37" value="" style="shape=partialRectangle;top=0;left=0;bottom=0;html=1;fillColor=none;align=left;verticalAlign=top;spacingLeft=4;spacingRight=4;whiteSpace=wrap;overflow=hidden;rotatable=0;points=[];portConstraint=eastwest;part=1;" vertex="1" connectable="0" parent="e215ys3Rsmdvh917_Yf4-36">
          <mxGeometry width="30" height="29.999999999999993" as="geometry" />
        </mxCell>
        <mxCell id="e215ys3Rsmdvh917_Yf4-5" value="Message" style="swimlane;html=1;fontStyle=0;childLayout=stackLayout;horizontal=1;startSize=26;fillColor=#e0e0e0;horizontalStack=0;resizeParent=1;resizeLast=0;collapsible=1;marginBottom=0;swimlaneFillColor=#ffffff;align=center;rounded=0;shadow=0;comic=0;labelBackgroundColor=none;strokeWidth=1;fontFamily=Verdana;fontSize=14" vertex="1" parent="1">
          <mxGeometry x="340" y="50" width="180" height="160" as="geometry" />
        </mxCell>
        <mxCell id="e215ys3Rsmdvh917_Yf4-6" value="id:&lt;span style=&quot;font-weight: normal;&quot;&gt; string&lt;/span&gt;" style="shape=partialRectangle;top=0;left=0;right=0;bottom=1;html=1;align=left;verticalAlign=middle;fillColor=none;spacingLeft=34;spacingRight=4;whiteSpace=wrap;overflow=hidden;rotatable=0;points=[[0,0.5],[1,0.5]];portConstraint=eastwest;dropTarget=0;fontStyle=5;" vertex="1" parent="e215ys3Rsmdvh917_Yf4-5">
          <mxGeometry y="26" width="180" height="30" as="geometry" />
        </mxCell>
        <mxCell id="e215ys3Rsmdvh917_Yf4-7" value="PK" style="shape=partialRectangle;top=0;left=0;bottom=0;html=1;fillColor=none;align=left;verticalAlign=middle;spacingLeft=4;spacingRight=4;whiteSpace=wrap;overflow=hidden;rotatable=0;points=[];portConstraint=eastwest;part=1;" vertex="1" connectable="0" parent="e215ys3Rsmdvh917_Yf4-6">
          <mxGeometry width="30" height="30" as="geometry" />
        </mxCell>
        <mxCell id="e215ys3Rsmdvh917_Yf4-8" value="conversation_id: string" style="shape=partialRectangle;top=0;left=0;right=0;bottom=0;html=1;align=left;verticalAlign=top;fillColor=none;spacingLeft=34;spacingRight=4;whiteSpace=wrap;overflow=hidden;rotatable=0;points=[[0,0.5],[1,0.5]];portConstraint=eastwest;dropTarget=0;" vertex="1" parent="e215ys3Rsmdvh917_Yf4-5">
          <mxGeometry y="56" width="180" height="26" as="geometry" />
        </mxCell>
        <mxCell id="e215ys3Rsmdvh917_Yf4-9" value="FK" style="shape=partialRectangle;top=0;left=0;bottom=0;html=1;fillColor=none;align=left;verticalAlign=top;spacingLeft=4;spacingRight=4;whiteSpace=wrap;overflow=hidden;rotatable=0;points=[];portConstraint=eastwest;part=1;" vertex="1" connectable="0" parent="e215ys3Rsmdvh917_Yf4-8">
          <mxGeometry width="30" height="26" as="geometry" />
        </mxCell>
        <mxCell id="e215ys3Rsmdvh917_Yf4-10" value="author: string" style="shape=partialRectangle;top=0;left=0;right=0;bottom=0;html=1;align=left;verticalAlign=top;fillColor=none;spacingLeft=34;spacingRight=4;whiteSpace=wrap;overflow=hidden;rotatable=0;points=[[0,0.5],[1,0.5]];portConstraint=eastwest;dropTarget=0;" vertex="1" parent="e215ys3Rsmdvh917_Yf4-5">
          <mxGeometry y="82" width="180" height="26" as="geometry" />
        </mxCell>
        <mxCell id="e215ys3Rsmdvh917_Yf4-11" value="" style="shape=partialRectangle;top=0;left=0;bottom=0;html=1;fillColor=none;align=left;verticalAlign=top;spacingLeft=4;spacingRight=4;whiteSpace=wrap;overflow=hidden;rotatable=0;points=[];portConstraint=eastwest;part=1;" vertex="1" connectable="0" parent="e215ys3Rsmdvh917_Yf4-10">
          <mxGeometry width="30" height="26" as="geometry" />
        </mxCell>
        <mxCell id="e215ys3Rsmdvh917_Yf4-12" value="text: string" style="shape=partialRectangle;top=0;left=0;right=0;bottom=0;html=1;align=left;verticalAlign=top;fillColor=none;spacingLeft=34;spacingRight=4;whiteSpace=wrap;overflow=hidden;rotatable=0;points=[[0,0.5],[1,0.5]];portConstraint=eastwest;dropTarget=0;" vertex="1" parent="e215ys3Rsmdvh917_Yf4-5">
          <mxGeometry y="108" width="180" height="26" as="geometry" />
        </mxCell>
        <mxCell id="e215ys3Rsmdvh917_Yf4-13" value="" style="shape=partialRectangle;top=0;left=0;bottom=0;html=1;fillColor=none;align=left;verticalAlign=top;spacingLeft=4;spacingRight=4;whiteSpace=wrap;overflow=hidden;rotatable=0;points=[];portConstraint=eastwest;part=1;" vertex="1" connectable="0" parent="e215ys3Rsmdvh917_Yf4-12">
          <mxGeometry width="30" height="26" as="geometry" />
        </mxCell>
        <mxCell id="e215ys3Rsmdvh917_Yf4-14" value="created_at: timestamp" style="shape=partialRectangle;top=0;left=0;right=0;bottom=0;html=1;align=left;verticalAlign=top;fillColor=none;spacingLeft=34;spacingRight=4;whiteSpace=wrap;overflow=hidden;rotatable=0;points=[[0,0.5],[1,0.5]];portConstraint=eastwest;dropTarget=0;" vertex="1" parent="e215ys3Rsmdvh917_Yf4-5">
          <mxGeometry y="134" width="180" height="26" as="geometry" />
        </mxCell>
        <mxCell id="e215ys3Rsmdvh917_Yf4-15" value="" style="shape=partialRectangle;top=0;left=0;bottom=0;html=1;fillColor=none;align=left;verticalAlign=top;spacingLeft=4;spacingRight=4;whiteSpace=wrap;overflow=hidden;rotatable=0;points=[];portConstraint=eastwest;part=1;" vertex="1" connectable="0" parent="e215ys3Rsmdvh917_Yf4-14">
          <mxGeometry width="30" height="26" as="geometry" />
        </mxCell>
        <mxCell id="e215ys3Rsmdvh917_Yf4-18" value="" style="edgeStyle=entityRelationEdgeStyle;fontSize=12;html=1;endArrow=ERoneToMany;rounded=0;" edge="1" parent="1" source="e215ys3Rsmdvh917_Yf4-36" target="e215ys3Rsmdvh917_Yf4-8">
          <mxGeometry width="100" height="100" relative="1" as="geometry">
            <mxPoint x="170" y="240" as="sourcePoint" />
            <mxPoint x="270" y="140" as="targetPoint" />
          </mxGeometry>
        </mxCell>
        <mxCell id="e215ys3Rsmdvh917_Yf4-19" value="User" style="swimlane;html=1;fontStyle=0;childLayout=stackLayout;horizontal=1;startSize=26;fillColor=#e0e0e0;horizontalStack=0;resizeParent=1;resizeLast=0;collapsible=1;marginBottom=0;swimlaneFillColor=#ffffff;align=center;rounded=0;shadow=0;comic=0;labelBackgroundColor=none;strokeWidth=1;fontFamily=Verdana;fontSize=14" vertex="1" parent="1">
          <mxGeometry x="30" y="320" width="160" height="160" as="geometry" />
        </mxCell>
        <mxCell id="e215ys3Rsmdvh917_Yf4-20" value="id:&lt;span style=&quot;font-weight: normal;&quot;&gt; string&lt;/span&gt;" style="shape=partialRectangle;top=0;left=0;right=0;bottom=1;html=1;align=left;verticalAlign=middle;fillColor=none;spacingLeft=34;spacingRight=4;whiteSpace=wrap;overflow=hidden;rotatable=0;points=[[0,0.5],[1,0.5]];portConstraint=eastwest;dropTarget=0;fontStyle=5;" vertex="1" parent="e215ys3Rsmdvh917_Yf4-19">
          <mxGeometry y="26" width="160" height="30" as="geometry" />
        </mxCell>
        <mxCell id="e215ys3Rsmdvh917_Yf4-21" value="PK" style="shape=partialRectangle;top=0;left=0;bottom=0;html=1;fillColor=none;align=left;verticalAlign=middle;spacingLeft=4;spacingRight=4;whiteSpace=wrap;overflow=hidden;rotatable=0;points=[];portConstraint=eastwest;part=1;" vertex="1" connectable="0" parent="e215ys3Rsmdvh917_Yf4-20">
          <mxGeometry width="30" height="30" as="geometry" />
        </mxCell>
        <mxCell id="e215ys3Rsmdvh917_Yf4-22" value="name: string" style="shape=partialRectangle;top=0;left=0;right=0;bottom=0;html=1;align=left;verticalAlign=top;fillColor=none;spacingLeft=34;spacingRight=4;whiteSpace=wrap;overflow=hidden;rotatable=0;points=[[0,0.5],[1,0.5]];portConstraint=eastwest;dropTarget=0;" vertex="1" parent="e215ys3Rsmdvh917_Yf4-19">
          <mxGeometry y="56" width="160" height="26" as="geometry" />
        </mxCell>
        <mxCell id="e215ys3Rsmdvh917_Yf4-23" value="" style="shape=partialRectangle;top=0;left=0;bottom=0;html=1;fillColor=none;align=left;verticalAlign=top;spacingLeft=4;spacingRight=4;whiteSpace=wrap;overflow=hidden;rotatable=0;points=[];portConstraint=eastwest;part=1;" vertex="1" connectable="0" parent="e215ys3Rsmdvh917_Yf4-22">
          <mxGeometry width="30" height="26" as="geometry" />
        </mxCell>
        <mxCell id="e215ys3Rsmdvh917_Yf4-24" value="role: string" style="shape=partialRectangle;top=0;left=0;right=0;bottom=0;html=1;align=left;verticalAlign=top;fillColor=none;spacingLeft=34;spacingRight=4;whiteSpace=wrap;overflow=hidden;rotatable=0;points=[[0,0.5],[1,0.5]];portConstraint=eastwest;dropTarget=0;" vertex="1" parent="e215ys3Rsmdvh917_Yf4-19">
          <mxGeometry y="82" width="160" height="26" as="geometry" />
        </mxCell>
        <mxCell id="e215ys3Rsmdvh917_Yf4-25" value="" style="shape=partialRectangle;top=0;left=0;bottom=0;html=1;fillColor=none;align=left;verticalAlign=top;spacingLeft=4;spacingRight=4;whiteSpace=wrap;overflow=hidden;rotatable=0;points=[];portConstraint=eastwest;part=1;" vertex="1" connectable="0" parent="e215ys3Rsmdvh917_Yf4-24">
          <mxGeometry width="30" height="26" as="geometry" />
        </mxCell>
        <mxCell id="e215ys3Rsmdvh917_Yf4-32" value="email: string" style="shape=partialRectangle;top=0;left=0;right=0;bottom=0;html=1;align=left;verticalAlign=top;fillColor=none;spacingLeft=34;spacingRight=4;whiteSpace=wrap;overflow=hidden;rotatable=0;points=[[0,0.5],[1,0.5]];portConstraint=eastwest;dropTarget=0;" vertex="1" parent="e215ys3Rsmdvh917_Yf4-19">
          <mxGeometry y="108" width="160" height="22" as="geometry" />
        </mxCell>
        <mxCell id="e215ys3Rsmdvh917_Yf4-33" value="" style="shape=partialRectangle;top=0;left=0;bottom=0;html=1;fillColor=none;align=left;verticalAlign=top;spacingLeft=4;spacingRight=4;whiteSpace=wrap;overflow=hidden;rotatable=0;points=[];portConstraint=eastwest;part=1;" vertex="1" connectable="0" parent="e215ys3Rsmdvh917_Yf4-32">
          <mxGeometry width="30" height="22" as="geometry" />
        </mxCell>
        <mxCell id="e215ys3Rsmdvh917_Yf4-34" value="phone: string" style="shape=partialRectangle;top=0;left=0;right=0;bottom=0;html=1;align=left;verticalAlign=top;fillColor=none;spacingLeft=34;spacingRight=4;whiteSpace=wrap;overflow=hidden;rotatable=0;points=[[0,0.5],[1,0.5]];portConstraint=eastwest;dropTarget=0;" vertex="1" parent="e215ys3Rsmdvh917_Yf4-19">
          <mxGeometry y="130" width="160" height="30" as="geometry" />
        </mxCell>
        <mxCell id="e215ys3Rsmdvh917_Yf4-35" value="" style="shape=partialRectangle;top=0;left=0;bottom=0;html=1;fillColor=none;align=left;verticalAlign=top;spacingLeft=4;spacingRight=4;whiteSpace=wrap;overflow=hidden;rotatable=0;points=[];portConstraint=eastwest;part=1;" vertex="1" connectable="0" parent="e215ys3Rsmdvh917_Yf4-34">
          <mxGeometry width="30" height="30" as="geometry" />
        </mxCell>
        <mxCell id="e215ys3Rsmdvh917_Yf4-31" value="" style="edgeStyle=entityRelationEdgeStyle;fontSize=12;html=1;endArrow=ERoneToMany;rounded=0;" edge="1" parent="1" source="e215ys3Rsmdvh917_Yf4-20" target="2e49270ec7c68f3f-83">
          <mxGeometry width="100" height="100" relative="1" as="geometry">
            <mxPoint x="170" y="360" as="sourcePoint" />
            <mxPoint x="200" y="110" as="targetPoint" />
            <Array as="points">
              <mxPoint x="140" y="380" />
              <mxPoint x="130" y="310" />
              <mxPoint x="80" y="350" />
              <mxPoint x="120" y="350" />
              <mxPoint x="160" y="330" />
              <mxPoint x="280" y="330" />
              <mxPoint x="270" y="420" />
              <mxPoint x="110" y="240" />
              <mxPoint x="210" y="350" />
              <mxPoint x="100" y="330" />
            </Array>
          </mxGeometry>
        </mxCell>
        <mxCell id="e215ys3Rsmdvh917_Yf4-43" value="Enum [&quot;Junior manager&quot;, &quot;&lt;span style=&quot;white-space-collapse: preserve;&quot;&gt;The &lt;/span&gt;&lt;span style=&quot;white-space-collapse: preserve;&quot; data-src-align=&quot;0:3&quot; class=&quot;EzKURWReUAB5oZgtQNkl&quot;&gt;God&lt;/span&gt;&lt;span style=&quot;white-space-collapse: preserve;&quot;&gt; of &lt;/span&gt;&lt;span style=&quot;white-space-collapse: preserve;&quot; data-src-align=&quot;4:6&quot; class=&quot;EzKURWReUAB5oZgtQNkl&quot;&gt;Sales&lt;/span&gt;&quot;, &quot;Regular Manager&lt;span style=&quot;background-color: transparent; color: light-dark(rgb(0, 0, 0), rgb(255, 255, 255));&quot;&gt;&quot;]&lt;/span&gt;" style="whiteSpace=wrap;html=1;rounded=1;arcSize=50;align=center;verticalAlign=middle;strokeWidth=1;autosize=1;spacing=4;treeFolding=1;treeMoving=1;newEdgeStyle={&quot;edgeStyle&quot;:&quot;entityRelationEdgeStyle&quot;,&quot;startArrow&quot;:&quot;none&quot;,&quot;endArrow&quot;:&quot;none&quot;,&quot;segment&quot;:10,&quot;curved&quot;:1,&quot;sourcePerimeterSpacing&quot;:0,&quot;targetPerimeterSpacing&quot;:0};" vertex="1" parent="1">
          <mxGeometry x="-390" y="330" width="390" height="30" as="geometry" />
        </mxCell>
        <mxCell id="e215ys3Rsmdvh917_Yf4-44" value="" style="edgeStyle=entityRelationEdgeStyle;startArrow=none;endArrow=none;segment=10;curved=1;sourcePerimeterSpacing=0;targetPerimeterSpacing=0;rounded=0;" edge="1" target="e215ys3Rsmdvh917_Yf4-43" parent="1" source="e215ys3Rsmdvh917_Yf4-24">
          <mxGeometry relative="1" as="geometry">
            <mxPoint x="-160" y="280" as="sourcePoint" />
          </mxGeometry>
        </mxCell>
        <mxCell id="e215ys3Rsmdvh917_Yf4-45" value="&lt;blockquote style=&quot;margin: 0 0 0 40px; border: none; padding: 0px;&quot;&gt;&lt;span class=&quot;hljs-attr&quot;&gt;&quot;messages&quot;&lt;/span&gt;&lt;span class=&quot;hljs-punctuation&quot;&gt;:&lt;/span&gt; &lt;span class=&quot;hljs-punctuation&quot;&gt;[&lt;span style=&quot;background-color: transparent; color: light-dark(rgb(0, 0, 0), rgb(255, 255, 255));&quot;&gt;{&lt;/span&gt;&lt;/span&gt;&lt;/blockquote&gt;&lt;blockquote style=&quot;margin: 0 0 0 40px; border: none; padding: 0px;&quot;&gt;&lt;span class=&quot;hljs-punctuation&quot;&gt;&lt;span style=&quot;background-color: transparent; color: light-dark(rgb(0, 0, 0), rgb(255, 255, 255));&quot; class=&quot;hljs-attr&quot;&gt;&quot;messageId&quot;&lt;/span&gt;&lt;span style=&quot;background-color: transparent; color: light-dark(rgb(0, 0, 0), rgb(255, 255, 255));&quot; class=&quot;hljs-punctuation&quot;&gt;:&lt;/span&gt;&lt;span style=&quot;background-color: transparent; color: light-dark(rgb(0, 0, 0), rgb(255, 255, 255));&quot;&gt; &lt;/span&gt;&lt;span style=&quot;background-color: transparent; color: light-dark(rgb(0, 0, 0), rgb(255, 255, 255));&quot; class=&quot;hljs-string&quot;&gt;&quot;msg2&quot;&lt;/span&gt;&lt;span style=&quot;background-color: transparent; color: light-dark(rgb(0, 0, 0), rgb(255, 255, 255));&quot; class=&quot;hljs-punctuation&quot;&gt;,&lt;/span&gt;&lt;br&gt;&lt;/span&gt;&lt;span class=&quot;hljs-attr&quot;&gt;&quot;role&quot;&lt;/span&gt;&lt;span class=&quot;hljs-punctuation&quot;&gt;:&lt;/span&gt; &lt;span class=&quot;hljs-string&quot;&gt;&quot;client&quot;&lt;/span&gt;&lt;span class=&quot;hljs-punctuation&quot;&gt;,&lt;br&gt;&lt;/span&gt;&lt;span class=&quot;hljs-attr&quot;&gt;&quot;text&quot;&lt;/span&gt;&lt;span class=&quot;hljs-punctuation&quot;&gt;:&lt;/span&gt; &lt;span class=&quot;hljs-string&quot;&gt;&quot;Пользовательский запрос...&quot;&lt;/span&gt;&lt;span class=&quot;hljs-punctuation&quot;&gt;,&lt;br&gt;&lt;/span&gt;&lt;span class=&quot;hljs-attr&quot;&gt;&quot;timestamp&quot;&lt;/span&gt;&lt;span class=&quot;hljs-punctuation&quot;&gt;:&lt;/span&gt; &lt;span class=&quot;hljs-string&quot;&gt;&quot;2025-02-02T12:00:10Z&quot;&lt;br&gt;&lt;/span&gt;&lt;span class=&quot;hljs-punctuation&quot;&gt;}]&lt;/span&gt;&lt;/blockquote&gt;                            " style="whiteSpace=wrap;html=1;rounded=1;arcSize=50;align=left;verticalAlign=middle;strokeWidth=1;autosize=1;spacing=4;treeFolding=1;treeMoving=1;newEdgeStyle={&quot;edgeStyle&quot;:&quot;entityRelationEdgeStyle&quot;,&quot;startArrow&quot;:&quot;none&quot;,&quot;endArrow&quot;:&quot;none&quot;,&quot;segment&quot;:10,&quot;curved&quot;:1,&quot;sourcePerimeterSpacing&quot;:0,&quot;targetPerimeterSpacing&quot;:0};" vertex="1" parent="1">
          <mxGeometry x="-340" y="180" width="290" height="100" as="geometry" />
        </mxCell>
        <mxCell id="e215ys3Rsmdvh917_Yf4-46" value="" style="edgeStyle=entityRelationEdgeStyle;startArrow=none;endArrow=none;segment=10;curved=1;sourcePerimeterSpacing=0;targetPerimeterSpacing=0;rounded=0;" edge="1" target="e215ys3Rsmdvh917_Yf4-45" parent="1" source="e215ys3Rsmdvh917_Yf4-36">
          <mxGeometry relative="1" as="geometry">
            <mxPoint x="-40" y="209.9999999999999" as="sourcePoint" />
            <Array as="points">
              <mxPoint x="60" y="250" />
            </Array>
          </mxGeometry>
        </mxCell>
        <mxCell id="e215ys3Rsmdvh917_Yf4-48" style="edgeStyle=entityRelationEdgeStyle;rounded=0;orthogonalLoop=1;jettySize=auto;html=1;startArrow=none;endArrow=none;segment=10;curved=1;sourcePerimeterSpacing=0;targetPerimeterSpacing=0;" edge="1" parent="1" source="e215ys3Rsmdvh917_Yf4-47" target="2e49270ec7c68f3f-87">
          <mxGeometry relative="1" as="geometry" />
        </mxCell>
        <mxCell id="e215ys3Rsmdvh917_Yf4-47" value="&lt;blockquote style=&quot;margin: 0 0 0 40px; border: none; padding: 0px;&quot;&gt;&lt;span class=&quot;hljs-attr&quot;&gt;&quot;completionOptions&quot;&lt;/span&gt;&lt;span class=&quot;hljs-punctuation&quot;&gt;:&lt;/span&gt; &lt;span class=&quot;hljs-punctuation&quot;&gt;{&lt;br&gt;&lt;/span&gt;&lt;span class=&quot;hljs-attr&quot;&gt;&quot;stream&quot;&lt;/span&gt;&lt;span class=&quot;hljs-punctuation&quot;&gt;:&lt;/span&gt; &lt;span class=&quot;hljs-literal&quot;&gt;false&lt;/span&gt;&lt;span class=&quot;hljs-punctuation&quot;&gt;,&lt;br&gt;&lt;/span&gt;&lt;span class=&quot;hljs-attr&quot;&gt;&quot;temperature&quot;&lt;/span&gt;&lt;span class=&quot;hljs-punctuation&quot;&gt;:&lt;/span&gt; &lt;span class=&quot;hljs-number&quot;&gt;0&lt;/span&gt;&lt;span class=&quot;hljs-punctuation&quot;&gt;,&lt;br&gt;&lt;/span&gt;&lt;span class=&quot;hljs-attr&quot;&gt;&quot;maxTokens&quot;&lt;/span&gt;&lt;span class=&quot;hljs-punctuation&quot;&gt;:&lt;/span&gt; &lt;span class=&quot;hljs-number&quot;&gt;2000&lt;br&gt;&lt;/span&gt;&lt;span class=&quot;hljs-punctuation&quot;&gt;}&lt;/span&gt;&lt;/blockquote&gt;              " style="whiteSpace=wrap;html=1;rounded=1;arcSize=50;align=left;verticalAlign=middle;strokeWidth=1;autosize=1;spacing=4;treeFolding=1;treeMoving=1;newEdgeStyle={&quot;edgeStyle&quot;:&quot;entityRelationEdgeStyle&quot;,&quot;startArrow&quot;:&quot;none&quot;,&quot;endArrow&quot;:&quot;none&quot;,&quot;segment&quot;:10,&quot;curved&quot;:1,&quot;sourcePerimeterSpacing&quot;:0,&quot;targetPerimeterSpacing&quot;:0};" vertex="1" parent="1">
          <mxGeometry x="-290" y="60" width="200" height="90" as="geometry" />
        </mxCell>
        <mxCell id="e215ys3Rsmdvh917_Yf4-50" style="edgeStyle=entityRelationEdgeStyle;rounded=0;orthogonalLoop=1;jettySize=auto;html=1;startArrow=none;endArrow=none;segment=10;curved=1;sourcePerimeterSpacing=0;targetPerimeterSpacing=0;" edge="1" parent="1" source="e215ys3Rsmdvh917_Yf4-49" target="e215ys3Rsmdvh917_Yf4-10">
          <mxGeometry relative="1" as="geometry" />
        </mxCell>
        <mxCell id="e215ys3Rsmdvh917_Yf4-49" value="Enum [&quot;Manager&quot;, &quot;Client&quot;]" style="whiteSpace=wrap;html=1;rounded=1;arcSize=50;align=center;verticalAlign=middle;strokeWidth=1;autosize=1;spacing=4;treeFolding=1;treeMoving=1;newEdgeStyle={&quot;edgeStyle&quot;:&quot;entityRelationEdgeStyle&quot;,&quot;startArrow&quot;:&quot;none&quot;,&quot;endArrow&quot;:&quot;none&quot;,&quot;segment&quot;:10,&quot;curved&quot;:1,&quot;sourcePerimeterSpacing&quot;:0,&quot;targetPerimeterSpacing&quot;:0};" vertex="1" parent="1">
          <mxGeometry x="600" y="102" width="190" height="30" as="geometry" />
        </mxCell>
      </root>
    </mxGraphModel>
  </diagram>
</mxfile>
